<?xml version="1.0" encoding="iso-8859-1"?>
<!-- Uploaded to: SVG Repo, www.svgrepo.com, Generator: SVG Repo Mixer Tools -->
<svg fill="#000000" height="32px" width="32px" version="1.1" id="Layer_1" xmlns="http://www.w3.org/2000/svg" xmlns:xlink="http://www.w3.org/1999/xlink"
	 viewBox="0 0 472.615 472.615" xml:space="preserve">
<g>
	<g>
		<path d="M0,0v472.615h472.615V0H0z M86.161,432H39.213v-46.948h46.947V432z M86.161,345.891H39.213v-46.948h46.947V345.891z
			 M86.161,259.782H39.213v-46.948h46.947V259.782z M86.161,173.672H39.213v-46.948h46.947V173.672z M86.161,87.563H39.213V40.615
			h46.947V87.563z M348.8,452.923H123.815v-206.77H348.8V452.923z M348.8,226.461H123.815V19.692H348.8V226.461z M433.402,432
			h-46.948v-46.948h46.948V432z M433.402,345.891h-46.948v-46.948h46.948V345.891z M433.402,259.782h-46.948v-46.948h46.948V259.782
			z M433.402,173.672h-46.948v-46.948h46.948V173.672z M433.402,87.563h-46.948V40.615h46.948V87.563z"/>
	</g>
</g>
</svg>