<?xml version="1.0" encoding="iso-8859-1"?>
<!-- Uploaded to: SVG Repo, www.svgrepo.com, Generator: SVG Repo Mixer Tools -->
<svg version="1.1" id="Layer_1" xmlns="http://www.w3.org/2000/svg" xmlns:xlink="http://www.w3.org/1999/xlink" 
	 viewBox="0 0 512 512" xml:space="preserve">
<g>
	<polygon style="fill:#DCE5FA;" points="143.667,8.526 89.103,8.526 89.103,63.52 143.667,63.52 162.431,36.023 	"/>
	<polygon style="fill:#DCE5FA;" points="143.667,63.52 89.103,63.52 89.103,118.514 143.667,118.514 162.431,91.018 	"/>
	<polygon style="fill:#DCE5FA;" points="143.667,118.514 89.103,118.514 89.103,173.508 143.667,173.508 162.431,146.012 	"/>
	<polygon style="fill:#DCE5FA;" points="143.667,173.508 89.103,173.508 89.103,228.503 143.667,228.503 162.431,201.006 	"/>
	<polygon style="fill:#DCE5FA;" points="143.667,228.503 89.103,228.503 89.103,283.497 143.667,283.497 162.431,256.001 	"/>
	<polygon style="fill:#DCE5FA;" points="143.667,283.497 89.103,283.497 89.103,338.491 143.667,338.491 162.431,310.995 	"/>
	<polygon style="fill:#DCE5FA;" points="143.667,338.491 89.103,338.491 89.103,393.486 143.667,393.486 162.431,365.989 	"/>
	<polygon style="fill:#DCE5FA;" points="143.667,393.486 89.103,393.486 89.103,448.48 143.667,448.48 162.431,420.983 	"/>
	<polygon style="fill:#DCE5FA;" points="143.667,448.48 89.103,448.48 89.103,503.474 143.667,503.474 162.431,475.978 	"/>
</g>
<path style="fill:#353640;" d="M169.473,86.211L153.988,63.52l15.485-22.692c1.977-2.899,1.977-6.712,0-9.611L150.709,3.719
	C149.121,1.393,146.484,0,143.667,0H89.103c-4.71,0-8.526,3.817-8.526,8.526V63.52v54.994v54.994v54.994v54.994v54.994v54.994
	v54.994v54.994c0,4.708,3.816,8.526,8.526,8.526h54.563c2.818,0,5.454-1.392,7.042-3.719l18.764-27.497
	c1.977-2.899,1.977-6.712,0-9.611l-15.485-22.692l15.485-22.692c1.977-2.899,1.977-6.712,0-9.611l-15.485-22.692l15.485-22.692
	c1.977-2.899,1.977-6.712,0-9.611l-15.485-22.692l15.485-22.692c1.977-2.899,1.977-6.712,0-9.611l-15.485-22.692l15.485-22.692
	c1.977-2.899,1.977-6.712,0-9.611l-15.485-22.692l15.485-22.692c1.977-2.899,1.977-6.712,0-9.611l-15.485-22.692l15.485-22.692
	c1.977-2.899,1.977-6.712,0-9.611l-15.485-22.692l15.485-22.692C171.45,92.925,171.45,89.11,169.473,86.211z M139.163,494.949
	H97.629v-37.943h41.534l12.946,18.971L139.163,494.949z M139.163,439.955H97.629v-37.943h41.534l12.946,18.971L139.163,439.955z
	 M139.163,384.96H97.629v-37.943h41.534l12.946,18.971L139.163,384.96z M139.163,329.966H97.629v-37.943h41.534l12.946,18.972
	L139.163,329.966z M139.163,274.972H97.629v-37.943h41.534l12.946,18.971L139.163,274.972z M139.163,219.977H97.629v-37.943h41.534
	l12.946,18.971L139.163,219.977z M139.163,164.983H97.629V127.04h41.534l12.946,18.971L139.163,164.983z M139.163,109.989H97.629
	V72.045h41.534l12.946,18.972L139.163,109.989z M139.163,54.994H97.629V17.051h41.534l12.946,18.971L139.163,54.994z"/>
<g>
	<polygon style="fill:#DCE5FA;" points="368.333,8.526 422.897,8.526 422.897,63.52 368.333,63.52 349.569,36.023 	"/>
	<polygon style="fill:#DCE5FA;" points="368.333,63.52 422.897,63.52 422.897,118.514 368.333,118.514 349.569,91.018 	"/>
	<polygon style="fill:#DCE5FA;" points="368.333,118.514 422.897,118.514 422.897,173.508 368.333,173.508 349.569,146.012 	"/>
	<polygon style="fill:#DCE5FA;" points="368.333,173.508 422.897,173.508 422.897,228.503 368.333,228.503 349.569,201.006 	"/>
	<polygon style="fill:#DCE5FA;" points="368.333,228.503 422.897,228.503 422.897,283.497 368.333,283.497 349.569,256.001 	"/>
	<polygon style="fill:#DCE5FA;" points="368.333,283.497 422.897,283.497 422.897,338.491 368.333,338.491 349.569,310.995 	"/>
	<polygon style="fill:#DCE5FA;" points="368.333,338.491 422.897,338.491 422.897,393.486 368.333,393.486 349.569,365.989 	"/>
	<polygon style="fill:#DCE5FA;" points="368.333,393.486 422.897,393.486 422.897,448.48 368.333,448.48 349.569,420.983 	"/>
	<polygon style="fill:#DCE5FA;" points="368.333,448.48 422.897,448.48 422.897,503.474 368.333,503.474 349.569,475.978 	"/>
</g>
<path style="fill:#353640;" d="M342.527,95.823l15.485,22.692l-15.485,22.692c-1.977,2.899-1.977,6.712,0,9.611l15.485,22.692
	L342.527,196.2c-1.977,2.899-1.977,6.712,0,9.611l15.485,22.692l-15.485,22.692c-1.977,2.899-1.977,6.712,0,9.611l15.485,22.692
	l-15.485,22.692c-1.977,2.899-1.977,6.712,0,9.611l15.485,22.692l-15.485,22.692c-1.977,2.899-1.977,6.712,0,9.611l15.485,22.692
	l-15.485,22.692c-1.977,2.899-1.977,6.712,0,9.611l15.485,22.692l-15.485,22.692c-1.977,2.899-1.977,6.712,0,9.611l18.764,27.497
	c1.588,2.327,4.225,3.719,7.042,3.719h54.563c4.71,0,8.526-3.817,8.526-8.526v-54.994v-54.994V338.49v-54.994v-54.994v-54.994
	v-54.994V63.52V8.526c0-4.708-3.816-8.526-8.526-8.526h-54.563c-2.818,0-5.454,1.393-7.042,3.719l-18.764,27.497
	c-1.977,2.899-1.977,6.712,0,9.611l15.485,22.692L342.527,86.21C340.55,89.11,340.55,92.925,342.527,95.823z M359.892,475.978
	l12.946-18.971h41.534v37.943h-41.534L359.892,475.978z M359.892,420.983l12.946-18.971h41.534v37.943h-41.534L359.892,420.983z
	 M359.892,365.989l12.946-18.971h41.534v37.943h-41.534L359.892,365.989z M359.892,310.995l12.946-18.972h41.534v37.943h-41.534
	L359.892,310.995z M359.892,256.001l12.946-18.971h41.534v37.943h-41.534L359.892,256.001z M359.892,201.006l12.946-18.971h41.534
	v37.943h-41.534L359.892,201.006z M359.892,146.012l12.946-18.971h41.534v37.943h-41.534L359.892,146.012z M359.892,91.018
	l12.946-18.972h41.534v37.943h-41.534L359.892,91.018z M359.892,36.022l12.945-18.971h41.534v37.943h-41.534L359.892,36.022z"/>
<rect x="143.673" y="8.526" style="fill:#9DA4B3;" width="224.665" height="247.48"/>
<path style="fill:#353640;" d="M368.333,264.526H143.667c-4.71,0-8.526-3.817-8.526-8.526V8.526c0-4.708,3.816-8.526,8.526-8.526
	h224.667c4.71,0,8.526,3.817,8.526,8.526v247.475C376.859,260.709,373.043,264.526,368.333,264.526z M152.192,247.475h207.616
	V17.051H152.192V247.475z"/>
<rect x="177.763" y="42.628" style="fill:#DCE5FA;" width="156.461" height="179.275"/>
<rect x="143.673" y="256.005" style="fill:#9DA4B3;" width="224.665" height="247.48"/>
<path style="fill:#353640;" d="M368.333,512H143.667c-4.71,0-8.526-3.817-8.526-8.526V256.001c0-4.708,3.816-8.526,8.526-8.526
	h224.667c4.71,0,8.526,3.817,8.526,8.526v247.475C376.859,508.183,373.043,512,368.333,512z M152.192,494.949h207.616V264.526
	H152.192V494.949z"/>
<rect x="177.763" y="290.107" style="fill:#DCE5FA;" width="156.461" height="179.275"/>
</svg>